# xmcd
#
# Track frame offsets:
#	150
#	17829
#	38858
#	56290
#	73850
#	90026
#	103003
#	121581
#	136843
#	153574
#	169449
#	186969
#	204797
#	222382
#	237828
#	251628
#	269758
#	292033
#	308235
#	324002
#	342159
#
# Disc length: 4781
#
# Revision: 1
# Processed by: cddbd v1.5.1PL0 Copyright (c) Steve Scherf et al.
# Submitted via: FreeRIP 2.11 
# Normalized: r0:DSETVAR1,TDELIM( - )
#
DISCID=2c12ab15
DTITLE=Various Artist - Country 101
DYEAR=1900
DGENRE=Country
TTITLE0=Phil Vasser - Just Another Day In Paradise
TTITLE1=JoDe Messina - Burn
TTITLE2=George Straight - Carrying Your Love With Me
TTITLE3=Blake Shelton - Austin
TTITLE4=Shania Twain - Honey I'm Home
TTITLE5=John Michael Montgomery - Be My Baby Tonight
TTITLE6=Diamond Rio - How Your Love Makes Me Feel
TTITLE7=Kenny Chesney - Don't Happen Twice
TTITLE8=Montgomery Gentry - She Couldn't Change Me
TTITLE9=Steve Holy - Good Morning Beautiful
TTITLE10=Lonestar - With Me
TTITLE11=Toby Kieth - Dream Walkin'
TTITLE12=John Michael Montgomery - Friends
TTITLE13=Garth Brooks - Unanswered Prayers
TTITLE14=Emerson Drive - I Should Be Sleeping
TTITLE15=Jessica Andrews - Who I Am
TTITLE16=Lee Ann Womack - Hope You Dance
TTITLE17=Leanne Rimes - Can't Fight The Moonlight
TTITLE18=Trick Pony - On A Night Like This
TTITLE19=Travis Tritt - It's A Great Day To Be Alive
TTITLE20=Geaorge Straight - Write This Down
EXTD=
EXTT0=
EXTT1=
EXTT2=
EXTT3=
EXTT4=
EXTT5=
EXTT6=
EXTT7=
EXTT8=
EXTT9=
EXTT10=
EXTT11=
EXTT12=
EXTT13=
EXTT14=
EXTT15=
EXTT16=
EXTT17=
EXTT18=
EXTT19=
EXTT20=
PLAYORDER=
